<?xml version="1.0" encoding="UTF-8" standalone="no" ?>
<!DOCTYPE svg PUBLIC "-//W3C//DTD SVG 1.1//EN" "http://www.w3.org/Graphics/SVG/1.1/DTD/svg11.dtd">
<svg xmlns="http://www.w3.org/2000/svg" xmlns:xlink="http://www.w3.org/1999/xlink" version="1.1" width="500" height="500" viewBox="0 0 500 500" xml:space="preserve">
<desc>Created with Fabric.js 5.2.4</desc>
<defs>
</defs>
<rect x="0" y="0" width="100%" height="100%" fill="transparent"></rect>
<g transform="matrix(1 0 0 1 250 250)" id="344bb093-61b2-46b4-b243-b604bf2229bc"  >
<rect style="stroke: none; stroke-width: 1; stroke-dasharray: none; stroke-linecap: butt; stroke-dashoffset: 0; stroke-linejoin: miter; stroke-miterlimit: 4; fill: rgb(255,255,255); fill-rule: nonzero; opacity: 1; visibility: hidden;" vector-effect="non-scaling-stroke"  x="-250" y="-250" rx="0" ry="0" width="500" height="500" />
</g>
<g transform="matrix(Infinity NaN NaN Infinity 0 0)" id="174a7b26-e5f1-4f8f-893b-ea14a3899391"  >
</g>
<g transform="matrix(0.59 0 0 0.59 250 250)"  >
<g style="" vector-effect="non-scaling-stroke"   >
		<g transform="matrix(0.13 0 0 -0.13 0 0)"  >
<path style="stroke: none; stroke-width: 1; stroke-dasharray: none; stroke-linecap: butt; stroke-dashoffset: 0; stroke-linejoin: miter; stroke-miterlimit: 4; fill: rgb(0,0,0); fill-rule: nonzero; opacity: 1;" vector-effect="non-scaling-stroke"  transform=" translate(-5107.5, -5265.78)" d="M 4895 8429 C 4646 8409 4252 8318 4029 8230 C 3720 8107 3449 7947 3175 7722 C 3010 7586 2912 7493 2786 7350 C 2364 6872 2129 6397 2001 5762 C 1962 5571 1950 5438 1950 5216 C 1950 4814 2001 4526 2138 4151 C 2278 3765 2567 3321 2867 3029 C 3380 2530 4063 2208 4794 2121 C 5043 2091 5124 2088 5280 2100 C 5719 2134 6013 2204 6370 2358 C 6873 2574 7264 2868 7591 3275 C 7939 3710 8151 4190 8242 4750 C 8263 4881 8265 4926 8265 5210 C 8264 5450 8260 5553 8247 5645 C 8226 5797 8172 6035 8124 6187 C 8069 6365 7942 6646 7851 6794 C 7830 6828 7800 6878 7785 6905 C 7676 7096 7415 7404 7269 7514 C 7210 7559 7175 7575 7199 7547 C 7212 7531 7204 7520 7180 7520 C 7170 7520 7159 7507 7153 7487 C 7143 7454 7144 7452 7227 7364 C 7398 7185 7529 7002 7568 6890 C 7581 6854 7595 6816 7600 6805 C 7619 6758 7633 6683 7634 6613 C 7635 6596 7639 6582 7643 6583 C 7648 6584 7653 6551 7656 6510 C 7659 6469 7667 6384 7676 6321 C 7699 6137 7676 5952 7605 5769 C 7553 5634 7499 5537 7409 5415 C 7237 5185 7042 5038 6800 4956 C 6561 4876 6413 4872 6145 4940 C 6011 4973 5953 4999 5835 5077 C 5728 5149 5632 5242 5530 5376 C 5489 5430 5434 5496 5408 5524 C 5381 5551 5360 5575 5360 5578 C 5360 5581 5353 5588 5344 5595 C 5325 5608 5333 5619 5475 5771 C 5513 5812 5653 5962 5785 6105 C 5917 6247 6108 6449 6210 6554 C 6610 6965 6706 7096 6756 7300 C 6783 7405 6782 7619 6756 7710 C 6715 7849 6616 8010 6522 8088 C 6266 8302 5985 8356 5715 8243 C 5518 8161 5441 8102 5177 7832 C 4805 7451 4846 7484 4697 7446 C 4562 7411 4457 7368 4345 7300 C 4140 7175 3936 6999 3797 6827 C 3487 6444 3299 6010 3244 5545 C 3220 5335 3231 5093 3270 5004 L 3287 4963 L 3171 4833 C 3107 4761 2968 4611 2862 4499 C 2636 4259 2595 4207 2574 4132 C 2543 4028 2580 3911 2671 3818 C 2728 3761 2776 3745 2885 3745 C 3010 3746 3047 3768 3211 3936 C 3286 4012 3407 4143 3481 4227 C 3611 4376 3614 4378 3635 4362 C 3647 4353 3669 4330 3683 4310 C 3724 4253 3928 4043 4019 3963 C 4204 3801 4430 3677 4713 3581 C 4990 3487 5224 3453 5470 3471 C 5811 3495 6102 3576 6409 3732 C 6820 3942 7295 4408 7590 4889 C 7741 5136 7804 5281 7839 5465 C 7851 5523 7860 5573 7860 5576 C 7860 5586 7822 5544 7782 5490 C 7760 5460 7700 5365 7648 5279 C 7514 5055 7508 5045 7438 4935 C 7294 4709 7043 4399 6893 4261 C 6558 3955 6262 3788 5874 3689 C 5685 3641 5534 3625 5335 3633 C 5125 3641 4914 3681 4710 3751 C 4578 3795 4314 3937 4200 4023 C 4064 4127 3855 4349 3775 4474 L 3738 4532 L 3887 4683 C 4072 4870 4169 4961 4223 4998 C 4288 5043 4398 5095 4475 5118 C 4736 5197 4793 5215 4856 5244 C 4950 5288 5032 5341 5110 5410 C 5146 5441 5209 5495 5250 5529 L 5324 5592 L 5333 5566 C 5339 5548 5336 5524 5326 5492 C 5317 5465 5313 5435 5316 5424 C 5320 5414 5353 5360 5389 5305 C 5509 5122 5727 4936 5925 4847 C 6134 4754 6386 4720 6610 4755 C 7026 4819 7338 5034 7604 5443 C 7698 5587 7720 5631 7763 5765 C 7844 6018 7860 6160 7831 6370 C 7820 6449 7812 6516 7814 6517 C 7820 6524 7910 6306 7943 6205 C 8005 6015 8070 5694 8091 5478 C 8107 5305 8097 4947 8072 4758 C 8039 4518 7945 4195 7841 3967 C 7674 3598 7358 3196 7028 2933 C 6910 2839 6686 2689 6570 2625 C 6320 2489 5875 2334 5635 2299 C 5066 2217 4579 2268 4040 2466 C 3843 2539 3507 2721 3345 2843 C 3238 2924 3049 3081 2976 3150 C 2885 3235 2710 3439 2643 3537 C 2577 3634 2453 3845 2398 3955 C 2285 4179 2188 4484 2143 4758 C 2118 4911 2116 4948 2115 5205 C 2115 5523 2125 5613 2191 5885 C 2305 6350 2458 6672 2753 7065 C 2988 7378 3354 7703 3696 7901 C 3988 8070 4292 8176 4657 8237 C 4802 8261 4842 8263 5147 8266 C 5424 8268 5483 8271 5507 8284 C 5522 8292 5549 8307 5567 8316 C 5585 8325 5604 8346 5610 8361 C 5617 8376 5629 8391 5638 8393 C 5661 8398 5592 8417 5505 8430 C 5424 8441 5041 8441 4895 8429 z M 6185 8105 C 6284 8066 6376 8002 6458 7915 C 6578 7790 6623 7675 6624 7495 C 6624 7368 6609 7306 6549 7190 C 6501 7096 6439 7025 6125 6700 C 5979 6549 5747 6302 5739 6288 C 5736 6283 5670 6215 5594 6137 C 5517 6059 5376 5912 5280 5810 C 5184 5708 5080 5599 5048 5568 C 4922 5445 4780 5372 4526 5299 C 4367 5253 4252 5203 4148 5134 C 4058 5074 3634 4653 3384 4375 C 3229 4203 3041 3999 3000 3958 C 2969 3928 2953 3921 2906 3915 C 2834 3906 2799 3920 2760 3973 C 2723 4023 2719 4097 2749 4145 C 2759 4162 2850 4263 2951 4371 C 3052 4478 3194 4631 3265 4710 C 3337 4789 3466 4928 3553 5019 C 3729 5202 3784 5273 3834 5382 C 3900 5526 3902 5536 3910 5795 C 3917 6009 3921 6045 3944 6130 C 3976 6246 4032 6365 4092 6445 C 4143 6512 4314 6704 4459 6855 C 4512 6910 4617 7023 4694 7105 C 5184 7633 5473 7925 5569 7992 C 5657 8053 5795 8116 5871 8129 C 5901 8135 5968 8138 6020 8136 C 6096 8134 6129 8127 6185 8105 z M 4463 7083 C 4285 6901 4070 6667 3988 6565 C 3898 6453 3837 6329 3783 6151 C 3760 6073 3757 6042 3750 5815 C 3743 5584 3741 5559 3717 5493 C 3681 5388 3653 5346 3533 5215 L 3425 5097 L 3413 5129 C 3391 5181 3378 5356 3385 5480 C 3397 5691 3440 5868 3540 6115 C 3673 6448 3896 6758 4174 6997 C 4328 7129 4516 7238 4591 7240 C 4614 7240 4597 7219 4463 7083 z" stroke-linecap="round" />
</g>
		<g transform="matrix(0.13 0 0 -0.13 23.15 -197.36)"  >
<path style="stroke: none; stroke-width: 1; stroke-dasharray: none; stroke-linecap: butt; stroke-dashoffset: 0; stroke-linejoin: miter; stroke-miterlimit: 4; fill: rgb(0,0,0); fill-rule: nonzero; opacity: 1;" vector-effect="non-scaling-stroke"  transform=" translate(-5281.16, -6746)" d="M 5907 7798 C 5826 7788 5757 7747 5691 7671 C 5467 7414 5169 7098 4741 6663 C 4252 6167 4259 6176 4259 6032 C 4259 5834 4366 5707 4546 5692 C 4661 5683 4754 5729 4855 5847 C 4888 5884 4951 5951 4995 5995 C 5121 6121 5330 6338 5520 6540 C 5616 6642 5819 6851 5971 7005 C 6134 7170 6256 7302 6268 7325 C 6313 7415 6315 7529 6274 7617 C 6249 7667 6168 7748 6117 7770 C 6058 7796 5976 7807 5907 7798 z M 6007 7625 C 6074 7605 6105 7579 6126 7525 C 6141 7485 6141 7472 6130 7423 C 6117 7362 6152 7401 5695 6936 C 5567 6806 5096 6317 4995 6209 C 4940 6151 4853 6059 4802 6004 C 4682 5876 4659 5860 4589 5860 C 4512 5860 4471 5884 4437 5951 C 4405 6012 4405 6066 4438 6127 C 4447 6145 4624 6330 4831 6538 C 5188 6896 5503 7229 5649 7404 C 5765 7543 5811 7589 5863 7615 C 5922 7644 5939 7645 6007 7625 z" stroke-linecap="round" />
</g>
		<g transform="matrix(0.13 0 0 -0.13 272.33 -167.86)"  >
<path style="stroke: none; stroke-width: 1; stroke-dasharray: none; stroke-linecap: butt; stroke-dashoffset: 0; stroke-linejoin: miter; stroke-miterlimit: 4; fill: rgb(0,0,0); fill-rule: nonzero; opacity: 1;" vector-effect="non-scaling-stroke"  transform=" translate(-7149.96, -6524.7)" d="M 6917 7463 C 6905 7421 6903 7394 6909 7367 C 6914 7346 6962 7256 7015 7168 C 7216 6835 7275 6580 7225 6247 C 7210 6151 7140 5922 7100 5840 C 7090 5821 7077 5787 7070 5765 C 7063 5743 7043 5696 7027 5660 C 7010 5624 6996 5589 6994 5582 C 6993 5574 6983 5559 6973 5547 C 6956 5528 6956 5527 6973 5533 C 7010 5547 7100 5623 7154 5688 C 7277 5832 7328 5940 7372 6144 C 7390 6226 7394 6279 7394 6430 C 7395 6599 7393 6626 7366 6740 C 7320 6943 7294 7003 7155 7245 C 7126 7295 7084 7371 7061 7415 C 7033 7470 7012 7499 6993 7508 C 6944 7530 6934 7524 6917 7463 z" stroke-linecap="round" />
</g>
		<g transform="matrix(0.13 0 0 -0.13 183.08 -89.99)"  >
<path style="stroke: none; stroke-width: 1; stroke-dasharray: none; stroke-linecap: butt; stroke-dashoffset: 0; stroke-linejoin: miter; stroke-miterlimit: 4; fill: rgb(0,0,0); fill-rule: nonzero; opacity: 1;" vector-effect="non-scaling-stroke"  transform=" translate(-6480.63, -5940.7)" d="M 6380 6505 C 6262 6472 6133 6391 6075 6312 C 5999 6208 5961 6107 5953 5985 C 5944 5846 5967 5777 6094 5560 C 6143 5475 6230 5400 6303 5378 C 6327 5371 6394 5365 6460 5365 C 6573 5365 6576 5366 6655 5405 C 6858 5504 7010 5741 7010 5957 C 7010 6122 6908 6312 6759 6424 C 6655 6502 6495 6536 6380 6505 z M 6572 6329 C 6643 6314 6698 6281 6753 6221 C 6871 6089 6891 5913 6808 5740 C 6767 5656 6680 5569 6614 5546 C 6549 5523 6435 5515 6383 5529 C 6322 5546 6204 5643 6174 5701 C 6115 5818 6095 5975 6125 6076 C 6146 6147 6209 6240 6257 6272 C 6349 6332 6459 6352 6572 6329 z" stroke-linecap="round" />
</g>
		<g transform="matrix(0.13 0 0 -0.13 -23.69 89.38)"  >
<path style="stroke: none; stroke-width: 1; stroke-dasharray: none; stroke-linecap: butt; stroke-dashoffset: 0; stroke-linejoin: miter; stroke-miterlimit: 4; fill: rgb(0,0,0); fill-rule: nonzero; opacity: 1;" vector-effect="non-scaling-stroke"  transform=" translate(-4929.84, -4595.45)" d="M 4814 4969 C 4764 4955 4689 4899 4644 4843 C 4584 4770 4557 4693 4556 4595 C 4555 4524 4559 4507 4588 4444 C 4629 4358 4712 4271 4785 4239 C 4854 4209 4963 4202 5032 4224 C 5144 4260 5238 4350 5283 4463 C 5309 4531 5311 4646 5287 4715 C 5266 4776 5197 4870 5144 4910 C 5067 4968 4909 4997 4814 4969 z M 5030 4781 C 5077 4749 5118 4695 5131 4646 C 5145 4595 5129 4510 5097 4463 C 5035 4370 4873 4360 4783 4443 C 4770 4454 4760 4467 4760 4471 C 4760 4476 4749 4496 4735 4516 C 4672 4609 4725 4751 4840 4799 C 4884 4818 4991 4807 5030 4781 z" stroke-linecap="round" />
</g>
</g>
</g>
</svg>